<svg width="222" height="65" viewBox="0 0 222 65" fill="none" xmlns="http://www.w3.org/2000/svg">
<path d="M87.5022 55.2743C86.8145 54.8521 86.0253 54.6249 85.2188 54.6169C84.6415 54.6136 84.0695 54.7285 83.5381 54.9546C83.0067 55.1807 82.527 55.5132 82.1284 55.9316C81.4409 56.6028 80.9971 57.485 80.8675 58.4378C80.7379 59.3907 80.93 60.3597 81.4132 61.1906C81.7917 61.8555 82.3338 62.4123 82.9879 62.8078C83.6422 63.2072 84.3936 63.4186 85.1598 63.4191H85.2713C86.0974 63.4153 86.9054 63.1759 87.6006 62.7289L87.6794 62.6763V61.401L87.1151 61.7888C86.56 62.1799 85.8974 62.3889 85.2188 62.3871C84.7818 62.3923 84.3483 62.3075 83.9453 62.1379C83.5424 61.9682 83.1785 61.7174 82.8764 61.401C82.5663 61.0908 82.3203 60.7224 82.1524 60.3169C81.9846 59.9114 81.8982 59.4767 81.8982 59.0377C81.8982 58.5987 81.9846 58.164 82.1524 57.7585C82.3203 57.353 82.5663 56.9846 82.8764 56.6745C83.1795 56.3593 83.5435 56.1093 83.9462 55.9398C84.349 55.7702 84.782 55.6847 85.2188 55.6884C85.8978 55.691 86.5596 55.9021 87.1151 56.2932L87.6794 56.681V55.4978L87.5875 55.34L87.5022 55.2743Z" fill="black"/>
<path d="M92.6268 55.8263H94.4181V63.2809H95.4811V55.8263H97.2461V54.8008H92.6268V55.8263Z" fill="black"/>
<path d="M105.527 59.8494L103.053 54.8008H101.872L104.982 60.9735L103.886 63.2809H105.008L109.031 54.8008H107.909L105.527 59.8494Z" fill="black"/>
<path d="M117.14 54.1567L113.204 62.2556H112.482V64.2869H113.505V63.2811H120.677V64.2869H121.72V62.2556H121.064L117.14 54.1567ZM114.312 62.2556L117.108 56.5299L119.929 62.2556H114.312Z" fill="black"/>
<path d="M128.256 61.3154V54.8008H127.193V63.2809H128.052L132.908 56.7466V63.2809H133.977V54.8008H133.091L128.256 61.3154Z" fill="black"/>
<path d="M140.401 55.6422C140.124 55.896 139.903 56.2047 139.752 56.5488C139.6 56.8929 139.522 57.2647 139.522 57.6407C139.522 58.0166 139.6 58.3885 139.752 58.7325C139.903 59.0766 140.124 59.3853 140.401 59.6391C140.765 59.9985 141.218 60.2548 141.713 60.3819L138.964 63.2809H139.358L140.395 63.2283L142.166 61.368V63.2809H143.223V54.8008H142.422C142.046 54.7991 141.674 54.8727 141.327 55.0172C140.98 55.1617 140.665 55.3742 140.401 55.6422ZM141.123 58.9291C140.952 58.7652 140.816 58.5683 140.723 58.3503C140.629 58.1322 140.582 57.8975 140.582 57.6604C140.582 57.4232 140.629 57.1885 140.723 56.9705C140.816 56.7524 140.952 56.5555 141.123 56.3917C141.398 56.1083 141.757 55.9215 142.146 55.8592V59.455C141.748 59.4003 141.381 59.2072 141.11 58.9094L141.123 58.9291Z" fill="black"/>
<path d="M162.021 54.1567L158.084 62.2556H157.382V64.2869H158.406V63.2811H165.577V64.2869H166.621V62.2556H165.965L162.021 54.1567ZM161.988 56.5299L164.81 62.2556H159.193L161.988 56.5299Z" fill="black"/>
<path d="M172.073 63.2809H175.577V62.2554H173.136V60.349H175.17V59.3169H173.136V55.8263H175.577V54.8008H172.073V63.2809Z" fill="black"/>
<path d="M186.286 54.8008H185.301L184.665 54.8862L181.994 57.2068V54.8008H180.938V63.2809H182.008V59.5076L185.689 63.2809H187.073L182.303 58.2783L186.286 54.8008Z" fill="black"/>
<path d="M195.373 54.6564C194.793 54.6523 194.218 54.7668 193.683 54.9929C193.148 55.2189 192.665 55.5518 192.263 55.9711C191.848 56.3654 191.517 56.8405 191.292 57.3672C191.066 57.894 190.95 58.4613 190.951 59.0345C190.949 59.6078 191.061 60.1757 191.281 60.7051C191.5 61.2345 191.823 61.7147 192.23 62.1175C192.617 62.5359 193.086 62.869 193.608 63.0954C194.13 63.3217 194.693 63.4365 195.262 63.4323H195.413C195.984 63.4372 196.551 63.3229 197.076 63.0965C197.602 62.8702 198.074 62.5368 198.464 62.1175C198.869 61.7138 199.189 61.2332 199.407 60.7038C199.624 60.1744 199.734 59.6069 199.73 59.0345C199.723 57.8767 199.259 56.7689 198.439 55.9533C197.618 55.1378 196.509 54.6809 195.354 54.6826L195.373 54.6564ZM198.654 59.0279C198.657 59.4678 198.573 59.904 198.405 60.3105C198.237 60.717 197.989 61.0856 197.676 61.3944C197.375 61.7124 197.012 61.9643 196.609 62.1341C196.205 62.3038 195.771 62.3877 195.334 62.3805C194.897 62.3842 194.464 62.2987 194.061 62.1291C193.659 61.9596 193.295 61.7096 192.991 61.3944C192.681 61.0843 192.435 60.7159 192.268 60.3104C192.1 59.9049 192.013 59.4702 192.013 59.0312C192.013 58.5922 192.1 58.1575 192.268 57.752C192.435 57.3465 192.681 56.9781 192.991 56.6679C193.297 56.3549 193.662 56.1061 194.065 55.9363C194.468 55.7665 194.9 55.679 195.337 55.679C195.774 55.679 196.207 55.7665 196.61 55.9363C197.012 56.1061 197.377 56.3549 197.683 56.6679C197.998 56.9743 198.249 57.3411 198.421 57.7465C198.592 58.1519 198.68 58.5877 198.68 59.0279H198.654Z" fill="black"/>
<path d="M206.068 54.8008H205.366V63.2809H206.429V60.4477C207.065 60.372 207.658 60.0877 208.115 59.6391C208.397 59.3933 208.622 59.0902 208.777 58.7502C208.932 58.4101 209.013 58.0408 209.014 57.667C209.017 57.2908 208.942 56.9181 208.793 56.5728C208.643 56.2276 208.424 55.9173 208.148 55.662C207.877 55.3856 207.553 55.1669 207.196 55.0189C206.839 54.871 206.455 54.7968 206.068 54.8008ZM206.429 59.4024V55.8395C206.799 55.9169 207.133 56.1131 207.381 56.3982C207.553 56.5616 207.689 56.7584 207.783 56.9765C207.877 57.1946 207.925 57.4295 207.925 57.667C207.925 57.9044 207.877 58.1393 207.783 58.3574C207.689 58.5756 207.553 58.7723 207.381 58.9357C207.125 59.1932 206.794 59.3615 206.436 59.4156L206.429 59.4024Z" fill="black"/>
<path d="M217.059 54.15L212.63 63.281H213.758L215.202 60.3228H218.89L220.353 63.281H221.527L217.059 54.15ZM215.681 59.2973L217.033 56.5166L218.397 59.2973H215.681Z" fill="black"/>
<path d="M80.7439 40.3386H82.3711V9.33681H99.5819V40.3386H101.216V7.87744H80.7439V40.3386Z" fill="black"/>
<path d="M116.281 20.3018C114.919 20.2824 113.568 20.5404 112.31 21.0602C111.051 21.5801 109.911 22.3508 108.958 23.3257C107.991 24.2451 107.222 25.3537 106.699 26.5828C106.177 27.8119 105.912 29.1354 105.92 30.4714C105.916 31.8175 106.181 33.1508 106.699 34.3928C107.218 35.6347 107.979 36.76 108.939 37.7025C109.84 38.6861 110.937 39.4706 112.158 40.0059C113.379 40.5413 114.698 40.8158 116.032 40.8119H116.458C117.8 40.8287 119.131 40.563 120.364 40.0319C121.597 39.5008 122.705 38.7162 123.617 37.7288C124.558 36.7771 125.304 35.6484 125.809 34.4075C126.315 33.1666 126.571 31.8379 126.563 30.4977C126.575 29.1607 126.314 27.8354 125.796 26.6032C125.278 25.371 124.514 24.2579 123.551 23.3323C122.608 22.3593 121.477 21.5888 120.227 21.0678C118.977 20.5468 117.635 20.2862 116.281 20.3018ZM124.994 30.5766C125.005 31.7288 124.785 32.8715 124.348 33.9373C123.911 35.0031 123.265 35.9704 122.449 36.7822C121.664 37.6214 120.715 38.2884 119.66 38.741C118.605 39.1936 117.468 39.422 116.32 39.4117C114 39.3829 111.783 38.4484 110.139 36.8071C108.496 35.1658 107.557 32.947 107.521 30.6226C107.518 29.4614 107.749 28.3115 108.2 27.2419C108.651 26.1722 109.313 25.2047 110.146 24.3973C110.939 23.5585 111.896 22.8922 112.957 22.4399C114.018 21.9875 115.161 21.7587 116.314 21.7678C117.46 21.7579 118.596 21.9866 119.65 22.4392C120.704 22.8918 121.652 23.5585 122.436 24.3973C123.251 25.205 123.897 26.1676 124.336 27.2286C124.776 28.2897 125 29.4278 124.994 30.5766Z" fill="black"/>
<path d="M139.732 20.0785L130.697 39.0109H129.155V42.7908H130.467V40.3388H148.793V42.7908H150.204V38.9649H148.747L139.732 20.0785ZM147.015 38.9649H132.219L139.607 23.5297L147.015 38.9649Z" fill="black"/>
<path d="M186.384 20.302C183.664 20.302 181.054 21.3805 179.125 23.302C177.196 25.2235 176.105 27.8318 176.089 30.557C176.078 30.9238 176.096 31.2908 176.141 31.6549H171.45V20.7753H169.862V40.3388H171.45V33.1077H176.371C177.065 35.2413 178.359 37.129 180.098 38.5441C181.801 40.0241 183.979 40.8407 186.233 40.8449H186.581C187.924 40.8548 189.255 40.5833 190.488 40.0478C191.721 39.5124 192.828 38.7248 193.739 37.7356C194.692 36.7891 195.446 35.6624 195.96 34.421C196.474 33.1796 196.736 31.8483 196.731 30.5044C196.74 29.1685 196.475 27.845 195.952 26.6159C195.43 25.3868 194.661 24.2782 193.693 23.3588C192.745 22.3796 191.609 21.6036 190.352 21.0782C189.095 20.5527 187.745 20.2886 186.384 20.302ZM195.143 30.5768C195.154 31.7325 194.93 32.8784 194.486 33.945C194.041 35.0117 193.386 35.9769 192.558 36.7824C191.762 37.6115 190.808 38.2711 189.751 38.7217C188.695 39.1722 187.558 39.4045 186.41 39.4045C185.262 39.4045 184.126 39.1722 183.069 38.7217C182.013 38.2711 181.058 37.6115 180.262 36.7824C179.441 35.9703 178.789 35.0031 178.344 33.9367C177.9 32.8703 177.67 31.726 177.67 30.5702C177.67 29.4144 177.9 28.2701 178.344 27.2037C178.789 26.1373 179.441 25.17 180.262 24.358C181.055 23.5249 182.008 22.8617 183.065 22.4085C184.121 21.9554 185.258 21.7218 186.407 21.7218C187.556 21.7218 188.693 21.9554 189.749 22.4085C190.805 22.8617 191.759 23.5249 192.552 24.358C193.383 25.1649 194.042 26.1316 194.491 27.2003C194.94 28.2689 195.168 29.4174 195.163 30.5768H195.143Z" fill="black"/>
<path d="M220.097 20.775L211.58 37.755L203.188 20.775H201.469V40.3385H202.886V23.7069L211.363 40.9893L219.966 23.8713V40.3385H221.553V20.775H220.097Z" fill="black"/>
<path d="M164.331 30.1494C163.571 29.0822 162.501 28.2763 161.266 27.842C161.714 27.534 162.091 27.1354 162.375 26.6719C162.807 25.9506 163.019 25.1191 162.986 24.2791C162.965 23.7633 162.838 23.2573 162.612 22.7934C162.386 22.3294 162.066 21.9175 161.673 21.5838C161.251 21.1775 160.752 20.8595 160.206 20.6484C159.659 20.4374 159.076 20.3375 158.491 20.3545C157.839 20.3591 157.197 20.511 156.611 20.799C156.026 21.0869 155.514 21.5035 155.112 22.0177V24.7326L155.243 24.8444C155.853 22.8723 157.074 21.8205 158.622 21.8205C158.975 21.8157 159.324 21.8859 159.648 22.0264C159.971 22.1669 160.261 22.3745 160.499 22.6356C160.995 23.1535 161.272 23.8437 161.272 24.5617C161.272 25.2798 160.995 25.97 160.499 26.4878C160.263 26.7511 159.973 26.9607 159.649 27.1024C159.326 27.2441 158.975 27.3148 158.622 27.3096H157.644V28.7886H158.826C159.515 28.7898 160.197 28.9341 160.829 29.2124C161.46 29.4907 162.027 29.8971 162.493 30.4058C162.994 30.8988 163.39 31.4874 163.66 32.1366C163.929 32.7858 164.066 33.4826 164.062 34.1857C164.066 34.886 163.93 35.58 163.661 36.2261C163.391 36.8722 162.994 37.4572 162.493 37.9459C162.031 38.4463 161.471 38.8463 160.848 39.121C160.225 39.3958 159.552 39.5395 158.871 39.5433C157.607 39.5788 156.372 39.1616 155.387 38.3666C154.422 37.5557 153.708 36.4863 153.327 35.2835C153.327 35.2835 153.327 35.3821 153.327 35.3295C153.327 35.3821 153.327 38.005 153.327 38.005C153.891 38.9532 154.698 39.7319 155.666 40.2593C156.633 40.7868 157.725 41.0435 158.826 41.0027C159.73 41.0129 160.627 40.8406 161.463 40.4961C162.3 40.1517 163.058 39.6421 163.694 38.9977C164.326 38.4309 164.833 37.7395 165.186 36.9669C165.538 36.1943 165.727 35.3571 165.741 34.5078C165.77 32.938 165.273 31.4038 164.331 30.1494Z" fill="black"/>
<path d="M31.5098 0L0 31.5098L31.5098 63.0197L63.0197 31.5098L31.5098 0ZM31.5098 2.0356L60.9841 31.5098L32.1506 60.3483V51.1018L35.1325 48.115V46.0794L32.1506 49.0662V45.4682L46.5624 31.0515L35.0241 19.2223L24.2448 30.0263L32.19 37.9764L37.8926 32.2738L33.1068 27.4929L32.0865 28.5082L35.8521 32.2738L32.19 35.9359L26.2754 30.0213L35.0142 21.2924L44.5367 31.0515L31.4605 44.1226L18.2809 30.7163L31.8549 17.1227L30.8691 16.1073L16.2503 30.7064L30.7064 45.414V54.5372L27.7837 51.6144V53.65L30.7064 56.5728V60.1807L2.0356 31.5098L31.5098 2.0356Z" fill="black"/>
</svg>
